<svg xmlns="http://www.w3.org/2000/svg" xmlns:xlink="http://www.w3.org/1999/xlink" width="24" height="24" viewBox="0 0 24 24">
  <defs>
    <clipPath id="clip-path">
      <rect id="Rectangle_116" data-name="Rectangle 116" width="24" height="24" transform="translate(71 394)" fill="#009432" stroke="#707070" stroke-width="1"/>
    </clipPath>
  </defs>
  <g id="Mask_Group_27" data-name="Mask Group 27" transform="translate(-71 -394)" clip-path="url(#clip-path)">
    <g id="motorcycle_1_" data-name="motorcycle (1)" transform="translate(71 397.563)">
      <path id="Path_183" data-name="Path 183" d="M20.484,9.844a3.471,3.471,0,0,0-1.592.4l-.95-1.129A4.691,4.691,0,0,1,19.3,8.565a5.725,5.725,0,0,1,1.188-.127,2.007,2.007,0,0,0,1.425-.585,2.208,2.208,0,0,0,.633-1.607A6.3,6.3,0,0,0,16.31,0h-.794a.7.7,0,1,0,0,1.406h.794a4.748,4.748,0,0,1,.612.062V2.827a3.487,3.487,0,0,0-1.157.333c0-.005-.01-.009-.015-.014a3.507,3.507,0,0,0-1.435,1.232l-1.6,2.4a.7.7,0,0,1-.479.3A4.433,4.433,0,0,0,8.931,9.535a5.593,5.593,0,0,1,.96,3.121H8.437a4.281,4.281,0,1,0-.259,1.406h6.634a.7.7,0,0,0,.7-.7,5.275,5.275,0,0,1,.138-1.185A4.8,4.8,0,0,1,16.845,10l.949,1.128a3.481,3.481,0,0,0-.826,2.236,3.516,3.516,0,1,0,3.516-3.516ZM4.219,15.469a2.812,2.812,0,1,1,2.812-2.812H4.922a.7.7,0,0,1-.7-.7.7.7,0,1,0-1.406,0,2.112,2.112,0,0,0,2.109,2.109H6.64A2.8,2.8,0,0,1,4.219,15.469Zm16.266,0a2.112,2.112,0,0,1-2.109-2.109,2.09,2.09,0,0,1,.322-1.108L19.935,13.8a.7.7,0,1,0,1.1-.879L19.8,11.375a2.082,2.082,0,0,1,.687-.125,2.109,2.109,0,1,1,0,4.219Zm0,0" fill="#009432"/>
      <path id="Path_184" data-name="Path 184" d="M11.941,5.405l1.2-1.807a4.9,4.9,0,0,1,1.464-1.412A4.875,4.875,0,0,0,12,1.406a4.935,4.935,0,0,0-4.1,2.2l1.125.675a9.383,9.383,0,0,0,2.915,1.119Zm0,0" fill="#009432"/>
      <path id="Path_185" data-name="Path 185" d="M8.3,5.492,3.79,2.812H.7a.7.7,0,0,0-.7.7A3.52,3.52,0,0,0,3.516,7.031,5.938,5.938,0,0,1,7.944,8.421c.006-.011.006-.024.013-.035a5.827,5.827,0,0,1,2.2-2.035A10.779,10.779,0,0,1,8.3,5.492Zm0,0" fill="#009432"/>
    </g>
  </g>
</svg>
