<svg xmlns="http://www.w3.org/2000/svg" xmlns:xlink="http://www.w3.org/1999/xlink" width="24" height="24" viewBox="0 0 24 24">
  <defs>
    <clipPath id="clip-path">
      <rect id="Rectangle_121" data-name="Rectangle 121" width="24" height="24" transform="translate(71 394)" fill="#1289a7" stroke="#707070" stroke-width="1"/>
    </clipPath>
  </defs>
  <g id="Mask_Group_32" data-name="Mask Group 32" transform="translate(-71 -394)" clip-path="url(#clip-path)">
    <path id="molar-tooth" d="M20.888,1.707A6.539,6.539,0,0,0,14.679.231a11.4,11.4,0,0,1-5.358,0A6.54,6.54,0,0,0,3.112,1.707c-3.95,3.611-.771,10.06.185,11.171s.987,2.592,1.666,5.616,1.543,5.894,3.271,5.462,2.191-2.53,2.623-5.339q.045-.29.093-.545a1.066,1.066,0,0,1,2.1,0q.048.255.093.545c.432,2.808.895,4.907,2.623,5.339s2.592-2.438,3.271-5.462.71-4.506,1.666-5.616S24.838,5.317,20.888,1.707ZM8.823,3.109a.65.65,0,0,1-.728.558A3.429,3.429,0,0,0,4.359,6.416.65.65,0,0,1,3.1,6.092,4.693,4.693,0,0,1,8.265,2.379.65.65,0,0,1,8.823,3.109Z" transform="translate(71 394)" fill="#1289a7"/>
  </g>
</svg>
