<svg xmlns="http://www.w3.org/2000/svg" xmlns:xlink="http://www.w3.org/1999/xlink" width="24" height="24" viewBox="0 0 24 24">
  <defs>
    <clipPath id="clip-path">
      <rect id="Rectangle_119" data-name="Rectangle 119" width="24" height="24" transform="translate(63 394)" fill="#eb3b5a" stroke="#707070" stroke-width="1"/>
    </clipPath>
  </defs>
  <g id="Mask_Group_30" data-name="Mask Group 30" transform="translate(-63 -394)" clip-path="url(#clip-path)">
    <g id="face-mask" transform="translate(62.945 393.538)">
      <path id="Path_193" data-name="Path 193" d="M13.028,1.827c-5.987,0-8.8,5.015-8.8,11.2s4.327,11.2,8.8,11.2,8.8-5.015,8.8-11.2-2.815-11.2-8.8-11.2ZM11.7,15.048a.3.3,0,0,1,.421-.032,1.237,1.237,0,0,0,1.824,0,.3.3,0,0,1,.389.453,2,2,0,0,1-1.3.549,2,2,0,0,1-1.3-.549.3.3,0,0,1-.032-.421ZM6.79,12.5A2.2,2.2,0,0,1,9.206,10.63,2.2,2.2,0,0,1,11.623,12.5a2.2,2.2,0,0,1-2.416,1.867A2.2,2.2,0,0,1,6.79,12.5Zm8.941,6.934a3.541,3.541,0,0,1-2.7,1.119,3.541,3.541,0,0,1-2.7-1.119.39.39,0,0,1,.059-.575,3.958,3.958,0,0,1,1.948-1.032.826.826,0,0,1,.49.133.366.366,0,0,0,.4,0,.826.826,0,0,1,.49-.133,3.958,3.958,0,0,1,1.948,1.032.39.39,0,0,1,.059.575Zm1.131-5.066A2.2,2.2,0,0,1,14.446,12.5a2.2,2.2,0,0,1,2.416-1.867A2.2,2.2,0,0,1,19.279,12.5a2.2,2.2,0,0,1-2.416,1.867Z" fill="#eb3b5a"/>
      <path id="Path_194" data-name="Path 194" d="M13.872,19.419H12.2a.321.321,0,0,1,0-.642h1.675a.321.321,0,1,1,0,.642Z" fill="#eb3b5a"/>
      <path id="Path_195" data-name="Path 195" d="M22.336,21.513l.257.47a.488.488,0,0,0,.194.194l.47.257a.487.487,0,0,1,0,.855l-.47.257a.488.488,0,0,0-.194.194l-.257.47a.487.487,0,0,1-.855,0l-.257-.47a.487.487,0,0,0-.194-.194l-.47-.257a.487.487,0,0,1,0-.855l.47-.257a.487.487,0,0,0,.194-.194l.257-.47a.487.487,0,0,1,.855,0Z" fill="#eb3b5a"/>
      <path id="Path_196" data-name="Path 196" d="M2.628,3.753l.257.47a.486.486,0,0,0,.194.193l.47.257a.487.487,0,0,1,0,.855l-.47.257a.486.486,0,0,0-.194.193l-.257.47a.487.487,0,0,1-.855,0l-.256-.471a.488.488,0,0,0-.194-.193l-.47-.257a.487.487,0,0,1,0-.855l.469-.257a.488.488,0,0,0,.194-.193l.257-.47a.487.487,0,0,1,.854,0Z" fill="#eb3b5a"/>
      <path id="Path_197" data-name="Path 197" d="M4.931.628,5.1.934a.317.317,0,0,0,.126.126l.307.168a.318.318,0,0,1,0,.558l-.307.168a.317.317,0,0,0-.126.126l-.168.307a.318.318,0,0,1-.558,0l-.168-.307a.317.317,0,0,0-.126-.126l-.307-.168a.318.318,0,0,1,0-.558l.307-.168A.317.317,0,0,0,4.205.934L4.373.628a.318.318,0,0,1,.558,0Z" fill="#eb3b5a"/>
    </g>
  </g>
</svg>
