<svg xmlns="http://www.w3.org/2000/svg" xmlns:xlink="http://www.w3.org/1999/xlink" width="24" height="24" viewBox="0 0 24 24">
  <defs>
    <clipPath id="clip-path">
      <rect id="Rectangle_88" data-name="Rectangle 88" width="24" height="24" transform="translate(71 394)" fill="#e2a715"/>
    </clipPath>
  </defs>
  <g id="Mask_Group_6" data-name="Mask Group 6" transform="translate(-71 -394)" clip-path="url(#clip-path)">
    <path id="pulse" d="M25.95,11.488a1.372,1.372,0,0,1-1.372,1.372H20.51l-2.332,3.505a1.372,1.372,0,0,1-1.146.61h-.085A1.372,1.372,0,0,1,15.8,16.22L12.747,10.1l-1.432,2.15a1.372,1.372,0,0,1-1.141.61h-4.8a1.372,1.372,0,1,1,0-2.744H9.439l2.332-3.505A1.354,1.354,0,0,1,13,6a1.372,1.372,0,0,1,1.143.756L17.2,12.874l1.432-2.15a1.372,1.372,0,0,1,1.141-.608h4.8A1.372,1.372,0,0,1,25.95,11.488Z" transform="translate(68.025 394.513)" fill="#e2a715"/>
  </g>
</svg>
